# xmcd
#
# Track frame offsets: 
#        150
#        20479
#        37110
#        53492
#        68225
#        83101
#        99408
#        114224
#        127114
#        146011
#        164292
#        180180
#        195406
#        211519
#
# Disc length: 2985 seconds
#
# Revision: 1
# Processed by: cddbd v1.5.2PL0 Copyright (c) Steve Scherf et al.
# Submitted via: ExactAudioCopy v0.99pb4
#
DISCID=b00ba70e
DTITLE=The Blasters - 4-11-44
DYEAR=2004
DGENRE=Blues
TTITLE0=Daddy Rollin' Stone
TTITLE1=4-11-44
TTITLE2=Rebound
TTITLE3=All Your Fault
TTITLE4=Julie
TTITLE5=Dry River
TTITLE6=Your Kind of Love
TTITLE7=Love is My Business
TTITLE8=Slip of the Tongue
TTITLE9=Precious Memories
TTITLE10=Boneyard (Dick Tracy Theme)
TTITLE11=Window Up Above
TTITLE12=Just to be with you
TTITLE13=Fire of Love
EXTD=This cd is mislabeled from the factory (tracks are wrong).  These
EXTD=are CORRECT
EXTT0=
EXTT1=
EXTT2=
EXTT3=
EXTT4=
EXTT5=
EXTT6=
EXTT7=
EXTT8=
EXTT9=
EXTT10=
EXTT11=
EXTT12=
EXTT13=
PLAYORDER=
